<svg width="21" height="17" viewBox="0 0 21 17" fill="none" xmlns="http://www.w3.org/2000/svg">
<path d="M3.78447 16.1422V15.0685C3.78447 14.6569 3.53451 14.3884 3.106 14.3884C2.89175 14.3884 2.65964 14.46 2.49895 14.6926C2.37397 14.4958 2.19542 14.3884 1.9276 14.3884C1.74906 14.3884 1.57052 14.4421 1.42768 14.639V14.4242H1.05273V16.1422H1.42768V15.1937C1.42768 14.8895 1.58837 14.7463 1.83833 14.7463C2.08829 14.7463 2.21328 14.9074 2.21328 15.1937V16.1422H2.58822V15.1937C2.58822 14.8895 2.76677 14.7463 2.99887 14.7463C3.24884 14.7463 3.37382 14.9074 3.37382 15.1937V16.1422H3.78447ZM9.33722 14.4242H8.73017V13.9052H8.35522V14.4242H8.01599V14.7642H8.35522V15.5516C8.35522 15.9454 8.51591 16.178 8.94442 16.178C9.10511 16.178 9.28366 16.1243 9.40864 16.0527L9.30151 15.7306C9.19438 15.8022 9.0694 15.8201 8.98013 15.8201C8.80159 15.8201 8.73017 15.7127 8.73017 15.5338V14.7642H9.33722V14.4242ZM12.5153 14.3884C12.3011 14.3884 12.1582 14.4958 12.069 14.639V14.4242H11.694V16.1422H12.069V15.1758C12.069 14.8895 12.1939 14.7284 12.426 14.7284C12.4975 14.7284 12.5867 14.7463 12.6582 14.7642L12.7653 14.4063C12.6939 14.3884 12.5867 14.3884 12.5153 14.3884ZM7.71246 14.5674C7.53392 14.4421 7.28395 14.3884 7.01614 14.3884C6.58763 14.3884 6.30196 14.6032 6.30196 14.9432C6.30196 15.2295 6.51621 15.3906 6.89115 15.4443L7.0697 15.4622C7.2661 15.498 7.37323 15.5516 7.37323 15.6411C7.37323 15.7664 7.23039 15.8559 6.98042 15.8559C6.73046 15.8559 6.53407 15.7664 6.40908 15.6769L6.23054 15.9633C6.42694 16.1064 6.69476 16.178 6.96257 16.178C7.4625 16.178 7.74817 15.9454 7.74817 15.6232C7.74817 15.319 7.51606 15.1579 7.15897 15.1043L6.98042 15.0864C6.81973 15.0685 6.69476 15.0327 6.69476 14.9253C6.69476 14.8 6.81974 14.7284 7.01614 14.7284C7.23039 14.7284 7.44464 14.8179 7.55177 14.8716L7.71246 14.5674ZM17.6753 14.3884C17.461 14.3884 17.3182 14.4958 17.2289 14.639V14.4242H16.854V16.1422H17.2289V15.1758C17.2289 14.8895 17.3539 14.7284 17.586 14.7284C17.6574 14.7284 17.7467 14.7463 17.8181 14.7642L17.9252 14.4063C17.8538 14.3884 17.7467 14.3884 17.6753 14.3884ZM12.8903 15.2832C12.8903 15.8022 13.2474 16.178 13.8008 16.178C14.0508 16.178 14.2294 16.1243 14.4079 15.9812L14.2294 15.6769C14.0865 15.7843 13.9437 15.838 13.783 15.838C13.4795 15.838 13.2652 15.6232 13.2652 15.2832C13.2652 14.9611 13.4795 14.7463 13.783 14.7284C13.9437 14.7284 14.0865 14.7821 14.2294 14.8895L14.4079 14.5853C14.2294 14.4421 14.0508 14.3884 13.8008 14.3884C13.2474 14.3884 12.8903 14.7642 12.8903 15.2832ZM16.354 15.2832V14.4242H15.9791V14.639C15.8541 14.4779 15.6756 14.3884 15.4435 14.3884C14.9614 14.3884 14.5864 14.7642 14.5864 15.2832C14.5864 15.8022 14.9614 16.178 15.4435 16.178C15.6934 16.178 15.872 16.0885 15.9791 15.9275V16.1422H16.354V15.2832ZM14.9792 15.2832C14.9792 14.979 15.1756 14.7284 15.497 14.7284C15.8005 14.7284 16.0148 14.9611 16.0148 15.2832C16.0148 15.5874 15.8005 15.838 15.497 15.838C15.1756 15.8201 14.9792 15.5874 14.9792 15.2832ZM10.4978 14.3884C9.99784 14.3884 9.64075 14.7463 9.64075 15.2832C9.64075 15.8201 9.99784 16.178 10.5156 16.178C10.7656 16.178 11.0155 16.1064 11.2119 15.9454L11.0334 15.6769C10.8906 15.7843 10.712 15.8559 10.5335 15.8559C10.3014 15.8559 10.0693 15.7485 10.0157 15.4443H11.2834C11.2834 15.3906 11.2834 15.3548 11.2834 15.3011C11.3012 14.7463 10.9798 14.3884 10.4978 14.3884ZM10.4978 14.7105C10.7299 14.7105 10.8906 14.8537 10.9263 15.1221H10.0335C10.0693 14.8895 10.2299 14.7105 10.4978 14.7105ZM19.8 15.2832V13.7442H19.425V14.639C19.3 14.4779 19.1215 14.3884 18.8894 14.3884C18.4073 14.3884 18.0324 14.7642 18.0324 15.2832C18.0324 15.8022 18.4073 16.178 18.8894 16.178C19.1393 16.178 19.3179 16.0885 19.425 15.9275V16.1422H19.8V15.2832ZM18.4252 15.2832C18.4252 14.979 18.6216 14.7284 18.9429 14.7284C19.2465 14.7284 19.4607 14.9611 19.4607 15.2832C19.4607 15.5874 19.2465 15.838 18.9429 15.838C18.6216 15.8201 18.4252 15.5874 18.4252 15.2832ZM5.8913 15.2832V14.4242H5.51636V14.639C5.39138 14.4779 5.21283 14.3884 4.98072 14.3884C4.49865 14.3884 4.1237 14.7642 4.1237 15.2832C4.1237 15.8022 4.49865 16.178 4.98072 16.178C5.23069 16.178 5.40923 16.0885 5.51636 15.9275V16.1422H5.8913V15.2832ZM4.49865 15.2832C4.49865 14.979 4.69505 14.7284 5.01643 14.7284C5.31996 14.7284 5.53421 14.9611 5.53421 15.2832C5.53421 15.5874 5.31996 15.838 5.01643 15.838C4.69505 15.8201 4.49865 15.5874 4.49865 15.2832Z" fill="black"/>
<path d="M13.2125 1.37793H7.58838V11.507H13.2125V1.37793Z" fill="#FF5F00"/>
<path d="M7.94525 6.44251C7.94525 4.38448 8.90939 2.55911 10.3913 1.37798C9.30219 0.518982 7.9274 0 6.42762 0C2.87457 0 0 2.88123 0 6.44251C0 10.0038 2.87457 12.885 6.42762 12.885C7.9274 12.885 9.30219 12.366 10.3913 11.507C8.90939 10.3438 7.94525 8.50053 7.94525 6.44251Z" fill="#EB001B"/>
<path d="M20.7997 6.44251C20.7997 10.0038 17.9251 12.885 14.3721 12.885C12.8723 12.885 11.4975 12.366 10.4084 11.507C11.9082 10.3259 12.8545 8.50053 12.8545 6.44251C12.8545 4.38448 11.8903 2.55911 10.4084 1.37798C11.4975 0.518982 12.8723 0 14.3721 0C17.9251 0 20.7997 2.89913 20.7997 6.44251Z" fill="#F79E1B"/>
</svg>
