<svg width="18" height="17" viewBox="0 0 18 17" fill="none" xmlns="http://www.w3.org/2000/svg">
<path d="M17.5698 6.6777C17.4778 6.12996 16.9719 5.76481 16.282 5.76481C16.052 5.76481 15.868 5.76481 15.638 5.76481C15.2241 5.71916 15.1321 5.8561 15.1321 6.17561C15.1321 7.77317 15.1321 9.32509 15.1321 10.9226C15.1321 11.7443 14.3042 12.6115 13.3383 12.7941C10.3027 13.4787 7.26708 14.1178 4.23146 14.8024C3.9095 14.8937 3.54155 14.8937 3.1736 14.8937C3.03562 14.8937 2.80565 14.8024 2.75965 14.6655C2.71366 14.5742 2.85164 14.3916 2.94363 14.3004C3.08161 14.2091 3.26559 14.1178 3.44957 14.0265C4.0015 13.8439 4.59942 13.6613 5.15135 13.4787C7.40506 12.7484 9.65879 12.0181 11.9125 11.2422C12.9244 10.9226 13.4763 10.238 13.4763 9.37074C13.5223 6.63206 13.4763 3.84774 13.4763 1.10906C13.4763 0.652615 13.2463 0.287459 12.7404 0.104881C12.1425 -0.123342 11.5905 0.0592333 11.0846 0.287456C7.865 1.79373 4.6914 3.3 1.47181 4.80628C0.551922 5.26272 0 5.90174 0 6.81464C0 9.41638 0 12.0181 0 14.6199C0 14.7568 -1.1228e-05 14.8937 0.045983 14.985C0.367943 15.8523 1.19585 16.4 2.29971 16.4C4.55343 16.4 6.80714 16.4 9.06086 16.4C11.3146 16.4 13.5223 16.4 15.776 16.4C16.282 16.4 16.6959 16.3087 17.0639 15.9892C17.5238 15.624 17.5238 15.122 17.5238 14.6655C17.5238 12.1094 17.5238 9.59896 17.5238 7.04286C17.6158 6.99721 17.6158 6.81463 17.5698 6.6777ZM8.18697 5.8561C8.41694 5.26272 8.92288 4.89757 9.65879 4.80628C10.1647 4.76063 10.5787 5.0345 10.6707 5.49094C10.7626 6.17561 9.93475 6.99722 9.06086 6.99722C8.37094 6.99722 7.957 6.49513 8.18697 5.8561Z" fill="#E47418"/>
</svg>
