<svg width="25" height="8" viewBox="0 0 25 8" fill="none" xmlns="http://www.w3.org/2000/svg">
<path d="M10.7119 7.88483H8.70947L9.96193 0.140625H11.9642L10.7119 7.88483Z" fill="#00579F"/>
<path d="M17.9707 0.329702C17.5758 0.173009 16.9493 0 16.1747 0C14.1973 0 12.8048 1.05448 12.7962 2.56206C12.7798 3.67435 13.7932 4.29214 14.5512 4.66302C15.3259 5.04199 15.5892 5.28935 15.5892 5.62716C15.5813 6.14596 14.9632 6.38511 14.3867 6.38511C13.5872 6.38511 13.1589 6.26181 12.5079 5.97317L12.2442 5.84944L11.964 7.58785C12.4337 7.80181 13.2989 7.99168 14.1973 8C16.2983 8 17.6662 6.96184 17.6824 5.35527C17.6904 4.47369 17.1553 3.79819 16.0016 3.24621C15.3012 2.89187 14.8723 2.65294 14.8723 2.29039C14.8805 1.9608 15.2351 1.62321 16.0257 1.62321C16.6767 1.60668 17.155 1.76315 17.5173 1.91974L17.6984 2.00197L17.9707 0.329702Z" fill="#00579F"/>
<path d="M20.6322 5.14134C20.7971 4.69644 21.4317 2.97457 21.4317 2.97457C21.4234 2.9911 21.5963 2.52146 21.6951 2.23315L21.8351 2.90044C21.8351 2.90044 22.2143 4.75415 22.2966 5.14134C21.9837 5.14134 21.0277 5.14134 20.6322 5.14134ZM23.104 0.140625H21.5551C21.0775 0.140625 20.7146 0.280565 20.5085 0.783166L17.5342 7.88473H19.6352C19.6352 7.88473 19.9812 6.92891 20.0555 6.72305C20.286 6.72305 22.3299 6.72305 22.6264 6.72305C22.6839 6.99494 22.8654 7.88473 22.8654 7.88473H24.7194L23.104 0.140625Z" fill="#00579F"/>
<path d="M7.03703 0.140625L5.07602 5.42143L4.86173 4.35042C4.49917 3.11462 3.36214 1.77194 2.09326 1.10433L3.88948 7.87662H6.00698L9.15442 0.140625H7.03703Z" fill="#00579F"/>
<path d="M3.25464 0.140625H0.0329591L0 0.297099C2.51311 0.939749 4.1775 2.48883 4.86132 4.35075L4.16096 0.791597C4.04566 0.29699 3.69132 0.15694 3.25464 0.140625Z" fill="#FAA61A"/>
</svg>
