<svg width="230" height="34" viewBox="0 0 230 34" fill="none" xmlns="http://www.w3.org/2000/svg">
<path d="M49.2161 18.7103C46.8563 18.7103 44.8677 17.9193 43.3033 16.3372C41.7389 14.7552 40.9435 12.804 40.9435 10.4573V10.4045C40.9435 8.08419 41.7389 6.10662 43.3298 4.52457C44.9207 2.91615 46.9358 2.12512 49.3752 2.12512C51.9472 2.12512 54.0684 2.94252 55.7388 4.60367L53.485 7.18769C52.1062 5.97479 50.754 5.36833 49.3487 5.36833C48.0229 5.36833 46.9093 5.84295 46.0078 6.81855C45.1063 7.79415 44.6821 8.98069 44.6821 10.3518V10.4045C44.6821 11.802 45.1328 13.0149 46.0078 13.9905C46.8828 14.9661 47.9964 15.4671 49.3752 15.4671C50.2237 15.4671 50.9926 15.3089 51.629 15.0189C52.2653 14.7024 52.9282 14.2278 53.6176 13.595L55.8714 15.8626C54.9699 16.8382 54.0153 17.5501 53.0078 18.0248C51.9472 18.473 50.701 18.7103 49.2161 18.7103Z" fill="#4E2D2D"/>
<path d="M58.6818 18.4216V2.39014H62.2348V7.42634H65.0984C67.0871 7.42634 68.6249 7.90096 69.7651 8.82382C70.9052 9.74669 71.462 11.0914 71.462 12.8581V12.8844C71.462 14.6247 70.9052 15.9694 69.7651 16.9714C68.6249 17.9734 67.034 18.4743 64.9659 18.4743H58.6818V18.4216ZM62.2348 15.2575H65.0189C65.9204 15.2575 66.6098 15.0466 67.1136 14.6511C67.6174 14.2555 67.856 13.6755 67.856 12.9108V12.8844C67.856 12.1461 67.6174 11.5924 67.1401 11.1705C66.6628 10.775 65.9734 10.5641 65.0454 10.5641H62.2348V15.2575ZM73.7953 18.4216V2.39014H77.3483V18.448H73.7953V18.4216Z" fill="#4E2D2D"/>
<path d="M81.2195 18.4216V2.39014H87.8217C89.7308 2.39014 91.2422 2.89112 92.3293 3.91946C93.4429 4.94779 93.9997 6.26617 93.9997 7.95369V8.00643C93.9997 9.79942 93.3899 11.1969 92.1437 12.1725C90.924 13.1481 89.3596 13.6491 87.4771 13.6491H84.7725V18.4743H81.2195V18.4216ZM84.7725 10.485H87.5831C88.4316 10.485 89.121 10.2477 89.6248 9.79942C90.1285 9.35117 90.3937 8.77109 90.3937 8.05916V8.00643C90.3937 7.2154 90.1285 6.63531 89.6248 6.21343C89.121 5.79155 88.4051 5.58061 87.5036 5.58061H84.7725V10.485Z" fill="#4E2D2D"/>
<path d="M110.598 16.2857C108.954 17.8941 106.913 18.7115 104.447 18.7115C101.981 18.7115 99.9393 17.9205 98.3219 16.3121C96.7045 14.7037 95.8825 12.7525 95.8825 10.4585V10.4058C95.8825 8.08541 96.7045 6.13421 98.3484 4.52579C99.9923 2.91737 102.034 2.09998 104.5 2.09998C106.966 2.09998 109.007 2.891 110.625 4.49942C112.242 6.10784 113.064 8.05904 113.064 10.353V10.4058C113.064 12.7261 112.242 14.6773 110.598 16.2857ZM101 13.9917C101.928 14.9673 103.095 15.4683 104.5 15.4683C105.905 15.4683 107.072 14.9937 107.973 14.0181C108.875 13.0425 109.326 11.8823 109.326 10.4585V10.4058C109.326 9.00828 108.875 7.79537 107.947 6.81977C107.019 5.84417 105.852 5.34319 104.447 5.34319C103.042 5.34319 101.875 5.8178 100.973 6.7934C100.072 7.769 99.6211 8.92917 99.6211 10.353V10.4058C99.6211 11.8032 100.072 13.0161 101 13.9917Z" fill="#4E2D2D"/>
<path d="M116.219 18.4216V2.39014H123.723C125.579 2.39014 126.984 2.86475 127.939 3.81398C128.681 4.55228 129.053 5.44877 129.053 6.52984V6.58258C129.053 8.16463 128.337 9.29844 126.931 10.0367C127.939 10.4059 128.681 10.9069 129.185 11.5397C129.689 12.1461 129.954 12.9635 129.954 13.9919V14.0446C129.954 15.4684 129.424 16.5759 128.337 17.3142C127.25 18.0525 125.791 18.448 123.909 18.448H116.219V18.4216ZM125.5 7.16267V7.10993C125.5 6.00249 124.731 5.44877 123.166 5.44877H119.666V8.87656H122.928C124.651 8.87656 125.5 8.29647 125.5 7.16267ZM126.401 13.5963V13.5436C126.401 12.3834 125.526 11.8034 123.776 11.8034H119.666V15.3366H123.882C125.579 15.3366 126.401 14.7565 126.401 13.5963Z" fill="#4E2D2D"/>
<path d="M131.492 18.4217L138.412 2.25842H141.674L148.594 18.4217H144.882L143.397 14.8094H136.583L135.098 18.4217H131.492ZM137.856 11.7244H142.151L139.977 6.5036L137.856 11.7244Z" fill="#4E2D2D"/>
<path d="M151.086 18.4216V2.39014H157.688C159.597 2.39014 161.109 2.89112 162.196 3.91946C163.31 4.94779 163.866 6.26617 163.866 7.95369V8.00643C163.866 9.79942 163.257 11.1969 162.01 12.1725C160.791 13.1481 159.226 13.6491 157.344 13.6491H154.639V18.4743H151.086V18.4216ZM154.613 10.485H157.423C158.272 10.485 158.961 10.2477 159.465 9.79942C159.969 9.35117 160.234 8.77109 160.234 8.05916V8.00643C160.234 7.2154 159.969 6.63531 159.465 6.21343C158.961 5.79155 158.245 5.58061 157.344 5.58061H154.613V10.485Z" fill="#4E2D2D"/>
<path d="M166.465 18.4216V2.39014H178.636V5.52788H169.992V8.77109H177.601V11.9088H169.992V15.2839H178.742V18.4216H166.465Z" fill="#4E2D2D"/>
<path d="M181.924 18.4216V2.39014H185.477V8.74472H192.026V2.39014H195.579V18.448H192.026V11.9879H185.477V18.4216H181.924Z" fill="#4E2D2D"/>
<path d="M213.794 18.4216H210.241V7.95369L202.579 18.4216H199.45V2.39014H203.003V12.5416L210.401 2.39014H213.794V18.4216Z" fill="#4E2D2D"/>
<path d="M217.665 18.4216V2.39014H229.836V5.52788H221.192V8.77109H228.802V11.9088H221.192V15.2839H229.942V18.4216H217.665Z" fill="#4E2D2D"/>
<path d="M41.9586 26.6058C41.9586 26.1062 42.0252 25.643 42.1584 25.2162C42.2916 24.7893 42.4914 24.4199 42.7578 24.1081C43.0243 23.7933 43.3588 23.5465 43.7614 23.3679C44.1641 23.1893 44.6333 23.1 45.1692 23.1C45.6627 23.1 46.1077 23.1893 46.5043 23.3679C46.9009 23.5465 47.237 23.7933 47.5124 24.1081C47.791 24.4199 48.0044 24.7893 48.1528 25.2162C48.3011 25.643 48.3753 26.1062 48.3753 26.6058C48.3753 27.1023 48.3011 27.5655 48.1528 27.9954C48.0044 28.4222 47.791 28.7931 47.5124 29.1079C47.237 29.4198 46.9009 29.665 46.5043 29.8436C46.1077 30.0222 45.6627 30.1115 45.1692 30.1115C44.6333 30.1115 44.1641 30.0222 43.7614 29.8436C43.3588 29.665 43.0243 29.4198 42.7578 29.1079C42.4914 28.7931 42.2916 28.4222 42.1584 27.9954C42.0252 27.5655 41.9586 27.1023 41.9586 26.6058ZM45.1692 28.9036C45.4538 28.9036 45.7081 28.8461 45.9321 28.731C46.1562 28.616 46.3454 28.457 46.4998 28.2542C46.6572 28.0483 46.7768 27.8061 46.8585 27.5276C46.9403 27.2461 46.9811 26.9388 46.9811 26.6058C46.9811 26.2727 46.9403 25.967 46.8585 25.6884C46.7768 25.4069 46.6572 25.1647 46.4998 24.9619C46.3454 24.756 46.1562 24.5955 45.9321 24.4805C45.7081 24.3654 45.4538 24.3079 45.1692 24.3079C44.8846 24.3079 44.6303 24.3654 44.4063 24.4805C44.1823 24.5955 43.9915 24.756 43.8341 24.9619C43.6797 25.1647 43.5601 25.4069 43.4753 25.6884C43.3936 25.967 43.3527 26.2727 43.3527 26.6058C43.3527 26.9388 43.3936 27.2461 43.4753 27.5276C43.5601 27.8061 43.6797 28.0483 43.8341 28.2542C43.9915 28.457 44.1823 28.616 44.4063 28.731C44.6303 28.8461 44.8846 28.9036 45.1692 28.9036Z" fill="#4E2D2D"/>
<path d="M53.7248 23.1908C53.7278 23.4451 53.6839 23.654 53.5931 23.8175C53.5023 23.9779 53.3812 24.1081 53.2298 24.208C53.0814 24.3049 52.9089 24.376 52.7121 24.4215C52.5183 24.4638 52.3185 24.4926 52.1127 24.5077C51.9704 24.5198 51.8235 24.5395 51.6722 24.5668C51.5208 24.591 51.3724 24.6304 51.2271 24.6848C51.0818 24.7363 50.9441 24.8059 50.8139 24.8937C50.6837 24.9785 50.5671 25.0845 50.4642 25.2116C50.3613 25.3388 50.2765 25.4901 50.2099 25.6657C50.1433 25.8413 50.1024 26.0472 50.0873 26.2833C50.1357 26.1259 50.2129 25.9776 50.3189 25.8383C50.4249 25.696 50.5565 25.5734 50.714 25.4705C50.8744 25.3645 51.0591 25.2813 51.268 25.2207C51.4769 25.1571 51.7085 25.1253 51.9628 25.1253C52.3019 25.1253 52.6076 25.1829 52.8801 25.2979C53.1526 25.4099 53.3842 25.5689 53.5749 25.7747C53.7656 25.9806 53.911 26.2288 54.0109 26.5195C54.1138 26.8101 54.1653 27.1325 54.1653 27.4867C54.1653 27.8803 54.1062 28.2376 53.9882 28.5585C53.8731 28.8794 53.7066 29.1549 53.4886 29.385C53.2737 29.612 53.0103 29.7891 52.6985 29.9163C52.3866 30.0404 52.0355 30.1025 51.6449 30.1025C51.0758 30.1025 50.605 29.9859 50.2326 29.7528C49.8602 29.5197 49.5741 29.1397 49.3743 28.613C49.3077 28.4343 49.2563 28.2451 49.2199 28.0453C49.1836 27.8455 49.1564 27.6578 49.1382 27.4822C49.1231 27.3066 49.114 27.1537 49.1109 27.0235C49.1079 26.8934 49.1064 26.8071 49.1064 26.7647C49.1064 26.2924 49.1609 25.861 49.2699 25.4705C49.3789 25.0769 49.5514 24.7348 49.7876 24.4442C50.0267 24.1535 50.3325 23.9189 50.7049 23.7403C51.0803 23.5617 51.5344 23.4481 52.0672 23.3997C52.2368 23.3846 52.3564 23.3573 52.426 23.318C52.4987 23.2756 52.5441 23.2332 52.5622 23.1908H53.7248ZM50.4551 27.4686C50.4551 27.6563 50.4748 27.8425 50.5142 28.0271C50.5565 28.2088 50.6247 28.3723 50.7185 28.5176C50.8124 28.6599 50.935 28.7749 51.0864 28.8627C51.2377 28.9505 51.4239 28.9944 51.6449 28.9944C51.878 28.9944 52.0703 28.952 52.2216 28.8673C52.376 28.7795 52.4987 28.6659 52.5895 28.5267C52.6803 28.3844 52.7439 28.2224 52.7802 28.0408C52.8165 27.8561 52.8347 27.6654 52.8347 27.4686C52.8347 27.2748 52.8135 27.0932 52.7711 26.9236C52.7287 26.7541 52.6621 26.6073 52.5713 26.4831C52.4805 26.356 52.3624 26.2576 52.2171 26.188C52.0718 26.1153 51.8962 26.079 51.6903 26.079C51.4693 26.079 51.2801 26.1168 51.1227 26.1925C50.9683 26.2652 50.8411 26.3651 50.7412 26.4922C50.6413 26.6194 50.5687 26.7677 50.5232 26.9373C50.4778 27.1038 50.4551 27.2809 50.4551 27.4686Z" fill="#4E2D2D"/>
<path d="M54.7919 27.4686C54.7919 27.0871 54.8495 26.7359 54.9645 26.415C55.0826 26.0941 55.2506 25.8186 55.4686 25.5885C55.6896 25.3554 55.956 25.1738 56.2678 25.0436C56.5797 24.9134 56.9308 24.8483 57.3214 24.8483C57.718 24.8483 58.0722 24.9134 58.384 25.0436C58.6989 25.1738 58.9638 25.3554 59.1787 25.5885C59.3967 25.8186 59.5632 26.0941 59.6782 26.415C59.7933 26.7359 59.8508 27.0871 59.8508 27.4686C59.8508 27.85 59.7933 28.2012 59.6782 28.5221C59.5632 28.843 59.3967 29.1201 59.1787 29.3532C58.9638 29.5863 58.6989 29.7679 58.384 29.8981C58.0722 30.0283 57.718 30.0934 57.3214 30.0934C56.9308 30.0934 56.5797 30.0283 56.2678 29.8981C55.956 29.7679 55.6896 29.5863 55.4686 29.3532C55.2506 29.1201 55.0826 28.843 54.9645 28.5221C54.8495 28.2012 54.7919 27.85 54.7919 27.4686ZM56.1316 27.4686C56.1316 27.6563 56.1513 27.8425 56.1906 28.0271C56.233 28.2088 56.3011 28.3723 56.395 28.5176C56.4888 28.6599 56.6114 28.7749 56.7628 28.8627C56.9142 28.9505 57.1004 28.9944 57.3214 28.9944C57.5515 28.9944 57.7422 28.952 57.8936 28.8673C58.048 28.7795 58.1706 28.6659 58.2614 28.5267C58.3522 28.3844 58.4158 28.2224 58.4521 28.0408C58.4915 27.8561 58.5112 27.6654 58.5112 27.4686C58.5112 27.2748 58.4915 27.0856 58.4521 26.9009C58.4158 26.7163 58.3522 26.5543 58.2614 26.415C58.1706 26.2727 58.048 26.1592 57.8936 26.0744C57.7422 25.9866 57.5515 25.9427 57.3214 25.9427C57.1004 25.9427 56.9142 25.9866 56.7628 26.0744C56.6114 26.1622 56.4888 26.2788 56.395 26.4241C56.3011 26.5664 56.233 26.7299 56.1906 26.9146C56.1513 27.0962 56.1316 27.2809 56.1316 27.4686Z" fill="#4E2D2D"/>
<path d="M60.7454 24.9936H61.9715V25.7021H61.9897C62.0775 25.5537 62.1698 25.4266 62.2667 25.3206C62.3636 25.2116 62.4711 25.1223 62.5891 25.0527C62.7072 24.983 62.8374 24.9316 62.9797 24.8983C63.125 24.865 63.2885 24.8483 63.4701 24.8483C63.6215 24.8483 63.7774 24.8665 63.9379 24.9028C64.0983 24.9392 64.2542 24.9982 64.4056 25.0799C64.56 25.1586 64.7053 25.2631 64.8416 25.3933C64.9778 25.5204 65.0974 25.6778 65.2003 25.8655C65.3032 26.0533 65.385 26.2727 65.4455 26.524C65.5061 26.7723 65.5364 27.0569 65.5364 27.3778C65.5364 27.7774 65.4925 28.1437 65.4047 28.4767C65.3199 28.8097 65.1897 29.0958 65.0141 29.335C64.8416 29.5742 64.6221 29.7604 64.3557 29.8936C64.0923 30.0268 63.782 30.0934 63.4247 30.0934C63.3006 30.0934 63.175 30.0813 63.0478 30.0571C62.9206 30.0328 62.7965 29.992 62.6754 29.9344C62.5543 29.8769 62.4393 29.7997 62.3303 29.7028C62.2243 29.6029 62.1305 29.4788 62.0487 29.3305H62.0306V31.8599H60.7454V24.9936ZM63.0887 26.0018C62.8828 26.0018 62.7087 26.0457 62.5664 26.1335C62.4272 26.2213 62.3136 26.3348 62.2258 26.4741C62.1411 26.6133 62.079 26.7708 62.0397 26.9463C62.0003 27.1219 61.9806 27.296 61.9806 27.4686C61.9806 27.5624 61.9852 27.6654 61.9942 27.7774C62.0064 27.8864 62.0275 27.9984 62.0578 28.1134C62.0881 28.2254 62.129 28.3344 62.1804 28.4404C62.2349 28.5464 62.303 28.6402 62.3848 28.7219C62.4665 28.8037 62.5649 28.8703 62.68 28.9218C62.795 28.9702 62.9312 28.9944 63.0887 28.9944C63.2461 28.9944 63.3823 28.9702 63.4974 28.9218C63.6124 28.8703 63.7108 28.8037 63.7926 28.7219C63.8743 28.6402 63.9409 28.5464 63.9924 28.4404C64.0469 28.3344 64.0892 28.2254 64.1195 28.1134C64.1498 27.9984 64.1695 27.8864 64.1786 27.7774C64.1907 27.6654 64.1967 27.5624 64.1967 27.4686C64.1967 27.296 64.177 27.1219 64.1377 26.9463C64.0983 26.7708 64.0347 26.6133 63.947 26.4741C63.8622 26.3348 63.7487 26.2213 63.6064 26.1335C63.4641 26.0457 63.2915 26.0018 63.0887 26.0018Z" fill="#4E2D2D"/>
<path d="M69.192 29.8618C69.0951 30.1464 69.0073 30.3931 68.9286 30.602C68.8499 30.8139 68.7712 30.9956 68.6925 31.1469C68.6168 31.3013 68.535 31.427 68.4473 31.5238C68.3625 31.6238 68.2626 31.7025 68.1475 31.76C68.0325 31.8175 67.8978 31.8569 67.7434 31.8781C67.589 31.9023 67.4058 31.9144 67.1939 31.9144C67.1091 31.9144 67.0289 31.9114 66.9532 31.9053C66.8805 31.9023 66.7928 31.8962 66.6898 31.8871V30.8472C66.7413 30.8533 66.8049 30.8593 66.8805 30.8654C66.9562 30.8714 67.0198 30.8745 67.0713 30.8745C67.2075 30.8745 67.3226 30.8487 67.4164 30.7973C67.5103 30.7458 67.5844 30.6837 67.6389 30.6111C67.6964 30.5414 67.7373 30.4688 67.7615 30.3931C67.7858 30.3174 67.7979 30.2538 67.7979 30.2024L65.9859 24.9936H67.4255L68.4881 28.6402H68.5063L69.519 24.9936H70.8949L69.192 29.8618Z" fill="#4E2D2D"/>
<path d="M71.2174 28.9036H71.7305C71.8516 28.6765 71.9515 28.4389 72.0302 28.1906C72.112 27.9394 72.1771 27.6866 72.2255 27.4323C72.2739 27.1779 72.3088 26.9297 72.33 26.6875C72.3511 26.4423 72.3663 26.2122 72.3754 25.9972C72.3844 25.7823 72.3875 25.5885 72.3844 25.416C72.3844 25.2434 72.386 25.1026 72.389 24.9936H76.2581V28.9036H76.8802V31.1333H75.6723V29.9435H72.4253V31.1333H71.2174V28.9036ZM74.9775 28.9036V26.0381H73.5061C73.5061 26.1289 73.5046 26.241 73.5016 26.3742C73.5016 26.5074 73.4955 26.6557 73.4834 26.8192C73.4743 26.9797 73.4592 27.1507 73.438 27.3323C73.4198 27.514 73.3911 27.6956 73.3517 27.8773C73.3154 28.0589 73.27 28.2376 73.2155 28.4131C73.164 28.5887 73.0989 28.7522 73.0202 28.9036H74.9775Z" fill="#4E2D2D"/>
<path d="M77.298 27.4686C77.298 27.0871 77.3555 26.7359 77.4706 26.415C77.5886 26.0941 77.7567 25.8186 77.9746 25.5885C78.1956 25.3554 78.4621 25.1738 78.7739 25.0436C79.0857 24.9134 79.4369 24.8483 79.8274 24.8483C80.224 24.8483 80.5782 24.9134 80.8901 25.0436C81.2049 25.1738 81.4698 25.3554 81.6848 25.5885C81.9027 25.8186 82.0693 26.0941 82.1843 26.415C82.2993 26.7359 82.3569 27.0871 82.3569 27.4686C82.3569 27.85 82.2993 28.2012 82.1843 28.5221C82.0693 28.843 81.9027 29.1201 81.6848 29.3532C81.4698 29.5863 81.2049 29.7679 80.8901 29.8981C80.5782 30.0283 80.224 30.0934 79.8274 30.0934C79.4369 30.0934 79.0857 30.0283 78.7739 29.8981C78.4621 29.7679 78.1956 29.5863 77.9746 29.3532C77.7567 29.1201 77.5886 28.843 77.4706 28.5221C77.3555 28.2012 77.298 27.85 77.298 27.4686ZM78.6376 27.4686C78.6376 27.6563 78.6573 27.8425 78.6967 28.0271C78.7391 28.2088 78.8072 28.3723 78.901 28.5176C78.9949 28.6599 79.1175 28.7749 79.2689 28.8627C79.4202 28.9505 79.6064 28.9944 79.8274 28.9944C80.0575 28.9944 80.2482 28.952 80.3996 28.8673C80.554 28.7795 80.6766 28.6659 80.7675 28.5267C80.8583 28.3844 80.9219 28.2224 80.9582 28.0408C80.9975 27.8561 81.0172 27.6654 81.0172 27.4686C81.0172 27.2748 80.9975 27.0856 80.9582 26.9009C80.9219 26.7163 80.8583 26.5543 80.7675 26.415C80.6766 26.2727 80.554 26.1592 80.3996 26.0744C80.2482 25.9866 80.0575 25.9427 79.8274 25.9427C79.6064 25.9427 79.4202 25.9866 79.2689 26.0744C79.1175 26.1622 78.9949 26.2788 78.901 26.4241C78.8072 26.5664 78.7391 26.7299 78.6967 26.9146C78.6573 27.0962 78.6376 27.2809 78.6376 27.4686Z" fill="#4E2D2D"/>
<path d="M84.6093 26.9373H85.5993C85.7446 26.9373 85.8657 26.9267 85.9626 26.9055C86.0594 26.8813 86.1351 26.848 86.1896 26.8056C86.2471 26.7602 86.2865 26.7057 86.3077 26.6421C86.3319 26.5755 86.344 26.4983 86.344 26.4105C86.344 26.3378 86.3319 26.2712 86.3077 26.2107C86.2865 26.1471 86.2486 26.0941 86.1942 26.0517C86.1397 26.0063 86.067 25.9715 85.9762 25.9473C85.8854 25.92 85.7718 25.9064 85.6356 25.9064H84.6093V26.9373ZM83.3241 24.9936H85.8854C86.1124 24.9936 86.3304 25.0133 86.5393 25.0527C86.7512 25.092 86.9374 25.1617 87.0978 25.2616C87.2583 25.3585 87.3855 25.4917 87.4793 25.6612C87.5762 25.8277 87.6246 26.0396 87.6246 26.297C87.6246 26.4453 87.608 26.574 87.5747 26.683C87.5444 26.7919 87.502 26.8858 87.4475 26.9645C87.393 27.0402 87.3294 27.1053 87.2568 27.1598C87.1872 27.2112 87.1145 27.2551 87.0388 27.2915C87.2871 27.3793 87.4763 27.52 87.6065 27.7138C87.7366 27.9045 87.8017 28.1331 87.8017 28.3995C87.8017 28.6326 87.7609 28.8446 87.6791 29.0353C87.6004 29.223 87.4869 29.385 87.3385 29.5212C87.1932 29.6544 87.0146 29.7588 86.8027 29.8345C86.5938 29.9072 86.3591 29.9435 86.0988 29.9435H83.3241V24.9936ZM84.6093 29.0307H85.5993C85.7839 29.0307 85.9323 29.0111 86.0443 28.9717C86.1593 28.9324 86.2471 28.8824 86.3077 28.8219C86.3713 28.7613 86.4121 28.6947 86.4303 28.622C86.4515 28.5494 86.4621 28.4813 86.4621 28.4177C86.4621 28.2966 86.4454 28.1967 86.4121 28.118C86.3819 28.0362 86.3319 27.9711 86.2623 27.9227C86.1957 27.8743 86.1064 27.841 85.9943 27.8228C85.8854 27.8046 85.7537 27.7955 85.5993 27.7955H84.6093V29.0307Z" fill="#4E2D2D"/>
<path d="M92.8379 28.9672C92.8379 29.1155 92.8455 29.2381 92.8606 29.335C92.8788 29.4289 92.9015 29.5045 92.9287 29.5621C92.956 29.6166 92.9862 29.6574 93.0195 29.6847C93.0559 29.7089 93.0937 29.7271 93.1331 29.7392V29.9435H91.7117C91.6875 29.886 91.6602 29.8103 91.6299 29.7165C91.6027 29.6196 91.5891 29.503 91.5891 29.3668C91.4892 29.4697 91.3908 29.5651 91.2939 29.6529C91.2 29.7407 91.0941 29.8179 90.976 29.8845C90.8579 29.9481 90.7217 29.998 90.5673 30.0343C90.4129 30.0737 90.2267 30.0934 90.0087 30.0934C89.7877 30.0934 89.5834 30.0601 89.3957 29.9935C89.211 29.9299 89.0505 29.8345 88.9143 29.7074C88.7781 29.5802 88.6721 29.4213 88.5964 29.2306C88.5207 29.0398 88.4829 28.8188 88.4829 28.5675C88.4829 28.3647 88.5147 28.177 88.5783 28.0044C88.6418 27.8288 88.7312 27.676 88.8462 27.5458C88.9643 27.4126 89.1066 27.3036 89.2731 27.2188C89.4426 27.131 89.6318 27.072 89.8407 27.0417L91.0986 26.8555C91.144 26.8495 91.1925 26.8404 91.2439 26.8283C91.2984 26.8162 91.3484 26.7965 91.3938 26.7692C91.4392 26.739 91.477 26.6996 91.5073 26.6512C91.5376 26.5997 91.5527 26.5316 91.5527 26.4468C91.5527 26.3651 91.5391 26.2909 91.5119 26.2243C91.4876 26.1547 91.4453 26.0956 91.3847 26.0472C91.3242 25.9957 91.2424 25.9564 91.1395 25.9291C91.0396 25.9019 90.9139 25.8883 90.7626 25.8883C90.59 25.8883 90.4507 25.9064 90.3448 25.9427C90.2418 25.9761 90.1601 26.0245 90.0996 26.0881C90.039 26.1486 89.9951 26.2213 89.9679 26.306C89.9406 26.3878 89.9209 26.4756 89.9088 26.5694H88.6237C88.6237 26.5089 88.6328 26.4256 88.6509 26.3197C88.6721 26.2107 88.7084 26.0926 88.7599 25.9655C88.8144 25.8383 88.8886 25.7096 88.9824 25.5795C89.0793 25.4493 89.2049 25.3312 89.3593 25.2252C89.5168 25.1163 89.7075 25.0269 89.9315 24.9573C90.1556 24.8877 90.4235 24.8514 90.7353 24.8483C91.1773 24.8483 91.5346 24.8937 91.807 24.9846C92.0825 25.0724 92.296 25.1889 92.4473 25.3342C92.6017 25.4765 92.7047 25.637 92.7561 25.8156C92.8106 25.9912 92.8379 26.1668 92.8379 26.3424V28.9672ZM91.5527 27.5276C91.474 27.57 91.3953 27.6094 91.3166 27.6457C91.2379 27.679 91.1334 27.7078 91.0033 27.732L90.6627 27.7955C90.5143 27.8228 90.3841 27.8546 90.2721 27.8909C90.1601 27.9272 90.0663 27.9757 89.9906 28.0362C89.9179 28.0938 89.8619 28.1649 89.8225 28.2497C89.7862 28.3344 89.7681 28.4404 89.7681 28.5675C89.7681 28.6735 89.7847 28.7658 89.818 28.8446C89.8513 28.9202 89.8967 28.9838 89.9542 29.0353C90.0148 29.0837 90.0844 29.1201 90.1631 29.1443C90.2418 29.1685 90.3266 29.1806 90.4174 29.1806C90.4659 29.1806 90.5279 29.1761 90.6036 29.167C90.6793 29.1549 90.7595 29.1337 90.8443 29.1034C90.9291 29.0731 91.0138 29.0323 91.0986 28.9808C91.1834 28.9263 91.2591 28.8567 91.3257 28.7719C91.3923 28.6871 91.4468 28.5842 91.4892 28.4631C91.5315 28.339 91.5527 28.1937 91.5527 28.0271V27.5276Z" fill="#4E2D2D"/>
<path d="M94.014 24.9936H95.2992V26.7829H97.1883V24.9936H98.4689V29.9435H97.1883V27.8228H95.2992V29.9435H94.014V24.9936Z" fill="#4E2D2D"/>
<path d="M99.6996 24.9936H100.985V28.0453H101.003L102.806 24.9936H104.154V29.9435H102.874V26.96H102.851L101.103 29.9435H99.6996V24.9936Z" fill="#4E2D2D"/>
<path d="M106.307 27.8682C106.307 27.9136 106.312 27.9742 106.321 28.0499C106.33 28.1255 106.348 28.2073 106.375 28.2951C106.402 28.3829 106.442 28.4722 106.493 28.563C106.545 28.6508 106.613 28.731 106.698 28.8037C106.785 28.8763 106.891 28.9354 107.015 28.9808C107.143 29.0262 107.294 29.0489 107.47 29.0489C107.56 29.0489 107.65 29.0368 107.737 29.0126C107.828 28.9853 107.912 28.9475 107.987 28.8991C108.063 28.8476 108.128 28.787 108.183 28.7174C108.24 28.6447 108.281 28.563 108.305 28.4722H109.636C109.636 28.563 109.616 28.6675 109.577 28.7855C109.537 28.9006 109.477 29.0186 109.395 29.1397C109.316 29.2578 109.216 29.3744 109.095 29.4894C108.974 29.6044 108.83 29.7074 108.664 29.7982C108.497 29.886 108.308 29.9571 108.096 30.0116C107.887 30.0661 107.654 30.0934 107.397 30.0934C107.067 30.0934 106.757 30.0434 106.466 29.9435C106.178 29.8466 105.926 29.6922 105.708 29.4803C105.493 29.2654 105.323 28.9884 105.199 28.6493C105.075 28.3102 105.013 27.8985 105.013 27.4141C105.013 27.078 105.057 26.7556 105.144 26.4468C105.235 26.135 105.375 25.861 105.562 25.6249C105.753 25.3887 105.995 25.201 106.289 25.0618C106.586 24.9195 106.941 24.8483 107.356 24.8483C107.795 24.8483 108.164 24.921 108.464 25.0663C108.764 25.2086 109.004 25.4114 109.186 25.6748C109.371 25.9382 109.502 26.2561 109.581 26.6285C109.66 27.0008 109.699 27.4141 109.699 27.8682H106.307ZM108.364 27.0145C108.364 26.7965 108.331 26.6148 108.264 26.4695C108.201 26.3242 108.119 26.2092 108.019 26.1244C107.922 26.0366 107.815 25.9761 107.697 25.9427C107.579 25.9064 107.465 25.8883 107.356 25.8883C107.25 25.8883 107.138 25.9064 107.02 25.9427C106.902 25.9761 106.793 26.0366 106.693 26.1244C106.596 26.2092 106.514 26.3242 106.448 26.4695C106.384 26.6148 106.352 26.7965 106.352 27.0145H108.364Z" fill="#4E2D2D"/>
<path d="M113.151 24.9936H114.436V28.0453H114.454L116.257 24.9936H117.605V29.9435H116.325V26.96H116.302L114.554 29.9435H113.151V24.9936Z" fill="#4E2D2D"/>
<path d="M122.496 26.0381H120.998V24.9936H125.275V26.0381H123.777V29.9435H122.496V26.0381Z" fill="#4E2D2D"/>
<path d="M125.78 27.4686C125.78 27.0871 125.837 26.7359 125.952 26.415C126.07 26.0941 126.238 25.8186 126.456 25.5885C126.677 25.3554 126.944 25.1738 127.255 25.0436C127.567 24.9134 127.918 24.8483 128.309 24.8483C128.706 24.8483 129.06 24.9134 129.372 25.0436C129.686 25.1738 129.951 25.3554 130.166 25.5885C130.384 25.8186 130.551 26.0941 130.666 26.415C130.781 26.7359 130.838 27.0871 130.838 27.4686C130.838 27.85 130.781 28.2012 130.666 28.5221C130.551 28.843 130.384 29.1201 130.166 29.3532C129.951 29.5863 129.686 29.7679 129.372 29.8981C129.06 30.0283 128.706 30.0934 128.309 30.0934C127.918 30.0934 127.567 30.0283 127.255 29.8981C126.944 29.7679 126.677 29.5863 126.456 29.3532C126.238 29.1201 126.07 28.843 125.952 28.5221C125.837 28.2012 125.78 27.85 125.78 27.4686ZM127.119 27.4686C127.119 27.6563 127.139 27.8425 127.178 28.0271C127.221 28.2088 127.289 28.3723 127.383 28.5176C127.476 28.6599 127.599 28.7749 127.75 28.8627C127.902 28.9505 128.088 28.9944 128.309 28.9944C128.539 28.9944 128.73 28.952 128.881 28.8673C129.036 28.7795 129.158 28.6659 129.249 28.5267C129.34 28.3844 129.403 28.2224 129.44 28.0408C129.479 27.8561 129.499 27.6654 129.499 27.4686C129.499 27.2748 129.479 27.0856 129.44 26.9009C129.403 26.7163 129.34 26.5543 129.249 26.415C129.158 26.2727 129.036 26.1592 128.881 26.0744C128.73 25.9866 128.539 25.9427 128.309 25.9427C128.088 25.9427 127.902 25.9866 127.75 26.0744C127.599 26.1622 127.476 26.2788 127.383 26.4241C127.289 26.5664 127.221 26.7299 127.178 26.9146C127.139 27.0962 127.119 27.2809 127.119 27.4686Z" fill="#4E2D2D"/>
<path d="M133.091 26.9373H134.081C134.226 26.9373 134.347 26.9267 134.444 26.9055C134.541 26.8813 134.617 26.848 134.671 26.8056C134.729 26.7602 134.768 26.7057 134.789 26.6421C134.813 26.5755 134.826 26.4983 134.826 26.4105C134.826 26.3378 134.813 26.2712 134.789 26.2107C134.768 26.1471 134.73 26.0941 134.676 26.0517C134.621 26.0063 134.549 25.9715 134.458 25.9473C134.367 25.92 134.253 25.9064 134.117 25.9064H133.091V26.9373ZM131.806 24.9936H134.367C134.594 24.9936 134.812 25.0133 135.021 25.0527C135.233 25.092 135.419 25.1617 135.579 25.2616C135.74 25.3585 135.867 25.4917 135.961 25.6612C136.058 25.8277 136.106 26.0396 136.106 26.297C136.106 26.4453 136.09 26.574 136.056 26.683C136.026 26.7919 135.984 26.8858 135.929 26.9645C135.875 27.0402 135.811 27.1053 135.738 27.1598C135.669 27.2112 135.596 27.2551 135.52 27.2915C135.769 27.3793 135.958 27.52 136.088 27.7138C136.218 27.9045 136.283 28.1331 136.283 28.3995C136.283 28.6326 136.242 28.8446 136.161 29.0353C136.082 29.223 135.968 29.385 135.82 29.5212C135.675 29.6544 135.496 29.7588 135.284 29.8345C135.075 29.9072 134.841 29.9435 134.58 29.9435H131.806V24.9936ZM133.091 29.0307H134.081C134.265 29.0307 134.414 29.0111 134.526 28.9717C134.641 28.9324 134.729 28.8824 134.789 28.8219C134.853 28.7613 134.894 28.6947 134.912 28.622C134.933 28.5494 134.944 28.4813 134.944 28.4177C134.944 28.2966 134.927 28.1967 134.894 28.118C134.863 28.0362 134.813 27.9711 134.744 27.9227C134.677 27.8743 134.588 27.841 134.476 27.8228C134.367 27.8046 134.235 27.7955 134.081 27.7955H133.091V29.0307Z" fill="#4E2D2D"/>
<path d="M141.319 28.9672C141.319 29.1155 141.327 29.2381 141.342 29.335C141.36 29.4289 141.383 29.5045 141.41 29.5621C141.438 29.6166 141.468 29.6574 141.501 29.6847C141.537 29.7089 141.575 29.7271 141.615 29.7392V29.9435H140.193C140.169 29.886 140.142 29.8103 140.111 29.7165C140.084 29.6196 140.071 29.503 140.071 29.3668C139.971 29.4697 139.872 29.5651 139.775 29.6529C139.682 29.7407 139.576 29.8179 139.458 29.8845C139.339 29.9481 139.203 29.998 139.049 30.0343C138.894 30.0737 138.708 30.0934 138.49 30.0934C138.269 30.0934 138.065 30.0601 137.877 29.9935C137.693 29.9299 137.532 29.8345 137.396 29.7074C137.26 29.5802 137.154 29.4213 137.078 29.2306C137.002 29.0398 136.964 28.8188 136.964 28.5675C136.964 28.3647 136.996 28.177 137.06 28.0044C137.123 27.8288 137.213 27.676 137.328 27.5458C137.446 27.4126 137.588 27.3036 137.755 27.2188C137.924 27.131 138.113 27.072 138.322 27.0417L139.58 26.8555C139.626 26.8495 139.674 26.8404 139.725 26.8283C139.78 26.8162 139.83 26.7965 139.875 26.7692C139.921 26.739 139.959 26.6996 139.989 26.6512C140.019 26.5997 140.034 26.5316 140.034 26.4468C140.034 26.3651 140.021 26.2909 139.993 26.2243C139.969 26.1547 139.927 26.0956 139.866 26.0472C139.806 25.9957 139.724 25.9564 139.621 25.9291C139.521 25.9019 139.395 25.8883 139.244 25.8883C139.072 25.8883 138.932 25.9064 138.826 25.9427C138.723 25.9761 138.642 26.0245 138.581 26.0881C138.521 26.1486 138.477 26.2213 138.449 26.306C138.422 26.3878 138.402 26.4756 138.39 26.5694H137.105C137.105 26.5089 137.114 26.4256 137.132 26.3197C137.154 26.2107 137.19 26.0926 137.241 25.9655C137.296 25.8383 137.37 25.7096 137.464 25.5795C137.561 25.4493 137.687 25.3312 137.841 25.2252C137.998 25.1163 138.189 25.0269 138.413 24.9573C138.637 24.8877 138.905 24.8514 139.217 24.8483C139.659 24.8483 140.016 24.8937 140.289 24.9846C140.564 25.0724 140.778 25.1889 140.929 25.3342C141.083 25.4765 141.186 25.637 141.238 25.8156C141.292 25.9912 141.319 26.1668 141.319 26.3424V28.9672ZM140.034 27.5276C139.956 27.57 139.877 27.6094 139.798 27.6457C139.719 27.679 139.615 27.7078 139.485 27.732L139.144 27.7955C138.996 27.8228 138.866 27.8546 138.754 27.8909C138.642 27.9272 138.548 27.9757 138.472 28.0362C138.399 28.0938 138.343 28.1649 138.304 28.2497C138.268 28.3344 138.25 28.4404 138.25 28.5675C138.25 28.6735 138.266 28.7658 138.3 28.8446C138.333 28.9202 138.378 28.9838 138.436 29.0353C138.496 29.0837 138.566 29.1201 138.645 29.1443C138.723 29.1685 138.808 29.1806 138.899 29.1806C138.947 29.1806 139.009 29.1761 139.085 29.167C139.161 29.1549 139.241 29.1337 139.326 29.1034C139.411 29.0731 139.495 29.0323 139.58 28.9808C139.665 28.9263 139.741 28.8567 139.807 28.7719C139.874 28.6871 139.928 28.5842 139.971 28.4631C140.013 28.339 140.034 28.1937 140.034 28.0271V27.5276Z" fill="#4E2D2D"/>
<path d="M142.459 24.9936H143.685V25.7021H143.704C143.791 25.5537 143.884 25.4266 143.981 25.3206C144.077 25.2116 144.185 25.1223 144.303 25.0527C144.421 24.983 144.551 24.9316 144.694 24.8983C144.839 24.865 145.002 24.8483 145.184 24.8483C145.335 24.8483 145.491 24.8665 145.652 24.9028C145.812 24.9392 145.968 24.9982 146.119 25.0799C146.274 25.1586 146.419 25.2631 146.555 25.3933C146.692 25.5204 146.811 25.6778 146.914 25.8655C147.017 26.0533 147.099 26.2727 147.159 26.524C147.22 26.7723 147.25 27.0569 147.25 27.3778C147.25 27.7774 147.206 28.1437 147.119 28.4767C147.034 28.8097 146.904 29.0958 146.728 29.335C146.555 29.5742 146.336 29.7604 146.07 29.8936C145.806 30.0268 145.496 30.0934 145.139 30.0934C145.014 30.0934 144.889 30.0813 144.762 30.0571C144.634 30.0328 144.51 29.992 144.389 29.9344C144.268 29.8769 144.153 29.7997 144.044 29.7028C143.938 29.6029 143.844 29.4788 143.763 29.3305H143.744V31.8599H142.459V24.9936ZM144.803 26.0018C144.597 26.0018 144.423 26.0457 144.28 26.1335C144.141 26.2213 144.027 26.3348 143.94 26.4741C143.855 26.6133 143.793 26.7708 143.754 26.9463C143.714 27.1219 143.694 27.296 143.694 27.4686C143.694 27.5624 143.699 27.6654 143.708 27.7774C143.72 27.8864 143.741 27.9984 143.772 28.1134C143.802 28.2254 143.843 28.3344 143.894 28.4404C143.949 28.5464 144.017 28.6402 144.099 28.7219C144.18 28.8037 144.279 28.8703 144.394 28.9218C144.509 28.9702 144.645 28.9944 144.803 28.9944C144.96 28.9944 145.096 28.9702 145.211 28.9218C145.326 28.8703 145.425 28.8037 145.506 28.7219C145.588 28.6402 145.655 28.5464 145.706 28.4404C145.761 28.3344 145.803 28.2254 145.833 28.1134C145.864 27.9984 145.883 27.8864 145.892 27.7774C145.905 27.6654 145.911 27.5624 145.911 27.4686C145.911 27.296 145.891 27.1219 145.852 26.9463C145.812 26.7708 145.749 26.6133 145.661 26.4741C145.576 26.3348 145.463 26.2213 145.32 26.1335C145.178 26.0457 145.005 26.0018 144.803 26.0018Z" fill="#4E2D2D"/>
<path d="M153.145 24.9936H154.43V29.9435H153.145V24.9936ZM148.181 24.9936H149.466V26.7147H150.633C150.939 26.7147 151.212 26.7465 151.451 26.8101C151.693 26.8737 151.897 26.9721 152.064 27.1053C152.23 27.2385 152.358 27.408 152.445 27.6139C152.533 27.8167 152.577 28.0574 152.577 28.3359C152.577 28.5872 152.541 28.8022 152.468 28.9808C152.395 29.1594 152.302 29.3093 152.186 29.4304C152.074 29.5484 151.949 29.6423 151.81 29.7119C151.67 29.7785 151.534 29.83 151.401 29.8663C151.268 29.8996 151.144 29.9208 151.028 29.9299C150.916 29.939 150.83 29.9435 150.77 29.9435H148.181V24.9936ZM149.466 28.9763H150.406C150.506 28.9763 150.605 28.9687 150.701 28.9535C150.801 28.9354 150.891 28.9036 150.969 28.8582C151.051 28.8097 151.116 28.7447 151.165 28.6629C151.213 28.5781 151.237 28.4692 151.237 28.3359C151.237 28.2058 151.212 28.0983 151.16 28.0135C151.112 27.9288 151.044 27.8622 150.956 27.8137C150.871 27.7653 150.771 27.732 150.656 27.7138C150.544 27.6926 150.424 27.682 150.297 27.682H149.466V28.9763Z" fill="#4E2D2D"/>
<path d="M157.818 28.9036H158.331C158.452 28.6765 158.552 28.4389 158.63 28.1906C158.712 27.9394 158.777 27.6866 158.826 27.4323C158.874 27.1779 158.909 26.9297 158.93 26.6875C158.951 26.4423 158.966 26.2122 158.976 25.9972C158.985 25.7823 158.988 25.5885 158.985 25.416C158.985 25.2434 158.986 25.1026 158.989 24.9936H162.858V28.9036H163.48V31.1333H162.272V29.9435H159.025V31.1333H157.818V28.9036ZM161.578 28.9036V26.0381H160.106C160.106 26.1289 160.105 26.241 160.102 26.3742C160.102 26.5074 160.096 26.6557 160.084 26.8192C160.074 26.9797 160.059 27.1507 160.038 27.3323C160.02 27.514 159.991 27.6956 159.952 27.8773C159.916 28.0589 159.87 28.2376 159.816 28.4131C159.764 28.5887 159.699 28.7522 159.62 28.9036H161.578Z" fill="#4E2D2D"/>
<path d="M168.912 29.9435H167.631V26.0381H166.114L166.087 26.96C166.072 27.4777 166.039 27.9318 165.987 28.3223C165.936 28.7129 165.851 29.0398 165.733 29.3032C165.618 29.5636 165.46 29.7604 165.26 29.8936C165.064 30.0268 164.811 30.0934 164.502 30.0934C164.357 30.0934 164.23 30.0843 164.121 30.0661C164.012 30.051 163.922 30.0283 163.853 29.998V28.9218C163.895 28.9399 163.948 28.9566 164.012 28.9717C164.078 28.9868 164.159 28.9944 164.252 28.9944C164.349 28.9944 164.436 28.9657 164.511 28.9081C164.587 28.8476 164.652 28.7401 164.706 28.5857C164.761 28.4283 164.803 28.2118 164.834 27.9363C164.864 27.6608 164.884 27.3051 164.893 26.8691L164.929 24.9936H168.912V29.9435Z" fill="#4E2D2D"/>
<path d="M174.724 29.9435H173.435V28.1225H172.594C172.41 28.1225 172.251 28.1301 172.118 28.1452C171.987 28.1573 171.88 28.1891 171.795 28.2406C171.71 28.289 171.645 28.3617 171.6 28.4586C171.558 28.5554 171.533 28.6871 171.527 28.8536L171.509 29.3305C171.503 29.4001 171.494 29.4909 171.482 29.6029C171.473 29.7149 171.444 29.8285 171.396 29.9435H170.038C170.077 29.8769 170.109 29.8133 170.133 29.7528C170.157 29.6892 170.176 29.6287 170.188 29.5711C170.203 29.5106 170.213 29.45 170.219 29.3895C170.229 29.3289 170.236 29.2654 170.242 29.1988L170.306 28.6039C170.321 28.4707 170.339 28.3556 170.36 28.2587C170.381 28.1619 170.416 28.0786 170.465 28.009C170.513 27.9363 170.58 27.8743 170.664 27.8228C170.749 27.7713 170.863 27.7244 171.005 27.682C170.96 27.6699 170.908 27.6533 170.851 27.6321C170.796 27.6078 170.737 27.5776 170.674 27.5412C170.613 27.5019 170.551 27.4534 170.487 27.3959C170.427 27.3354 170.369 27.2612 170.315 27.1734C170.275 27.1159 170.244 27.0553 170.219 26.9918C170.198 26.9252 170.182 26.8616 170.17 26.801C170.157 26.7375 170.15 26.6784 170.147 26.6239C170.144 26.5694 170.142 26.5225 170.142 26.4831C170.142 26.3076 170.163 26.1516 170.206 26.0154C170.248 25.8761 170.303 25.755 170.369 25.6521C170.436 25.5492 170.512 25.4614 170.596 25.3887C170.681 25.3161 170.767 25.257 170.855 25.2116C170.952 25.1571 171.06 25.1163 171.178 25.089C171.296 25.0587 171.411 25.0375 171.523 25.0254C171.635 25.0103 171.739 25.0012 171.836 24.9982C171.933 24.9952 172.009 24.9936 172.063 24.9936H174.724V29.9435ZM173.435 25.9609H172.399C172.29 25.9609 172.181 25.9639 172.072 25.97C171.963 25.9761 171.865 26.0003 171.777 26.0427C171.692 26.082 171.623 26.1456 171.568 26.2334C171.517 26.3182 171.491 26.4393 171.491 26.5967C171.491 26.7511 171.517 26.8691 171.568 26.9509C171.623 27.0326 171.691 27.0932 171.773 27.1325C171.857 27.1719 171.951 27.1946 172.054 27.2007C172.157 27.2067 172.26 27.2097 172.363 27.2097H173.435V25.9609Z" fill="#4E2D2D"/>
<path d="M181.436 26.742C181.412 26.6118 181.379 26.4983 181.336 26.4014C181.294 26.3015 181.238 26.2182 181.168 26.1516C181.102 26.082 181.018 26.0305 180.918 25.9972C180.822 25.9609 180.704 25.9427 180.564 25.9427C180.349 25.9427 180.177 25.9927 180.047 26.0926C179.919 26.1925 179.821 26.3182 179.751 26.4695C179.682 26.6209 179.635 26.7859 179.611 26.9645C179.589 27.1431 179.579 27.3112 179.579 27.4686C179.579 27.6321 179.588 27.8046 179.606 27.9863C179.624 28.1649 179.667 28.3299 179.733 28.4813C179.8 28.6296 179.898 28.7522 180.028 28.8491C180.159 28.946 180.337 28.9944 180.564 28.9944C180.713 28.9944 180.841 28.9657 180.95 28.9081C181.059 28.8476 181.15 28.7734 181.223 28.6856C181.295 28.5978 181.348 28.504 181.382 28.4041C181.418 28.3042 181.436 28.2133 181.436 28.1316H182.776C182.776 28.2133 182.761 28.3193 182.73 28.4495C182.703 28.5797 182.656 28.7174 182.59 28.8627C182.523 29.008 182.434 29.1549 182.322 29.3032C182.213 29.4485 182.075 29.5802 181.908 29.6983C181.745 29.8133 181.553 29.9072 181.332 29.9799C181.111 30.0555 180.855 30.0934 180.564 30.0934C180.186 30.0934 179.851 30.0359 179.561 29.9208C179.273 29.8058 179.031 29.6377 178.834 29.4167C178.64 29.1927 178.492 28.9172 178.389 28.5903C178.289 28.2633 178.239 27.8894 178.239 27.4686C178.239 27.0478 178.294 26.6754 178.403 26.3515C178.515 26.0245 178.672 25.7505 178.875 25.5295C179.078 25.3055 179.321 25.1359 179.606 25.0209C179.894 24.9058 180.213 24.8483 180.564 24.8483C180.716 24.8483 180.872 24.8604 181.032 24.8847C181.195 24.9089 181.356 24.9513 181.513 25.0118C181.671 25.0693 181.821 25.145 181.963 25.2389C182.108 25.3327 182.237 25.4508 182.349 25.5931C182.464 25.7323 182.558 25.8973 182.63 26.0881C182.706 26.2758 182.755 26.4937 182.776 26.742H181.436Z" fill="#4E2D2D"/>
<path d="M188.675 24.9936H189.96V29.9435H188.675V24.9936ZM183.711 24.9936H184.996V26.7147H186.164C186.469 26.7147 186.742 26.7465 186.981 26.8101C187.223 26.8737 187.427 26.9721 187.594 27.1053C187.76 27.2385 187.888 27.408 187.975 27.6139C188.063 27.8167 188.107 28.0574 188.107 28.3359C188.107 28.5872 188.071 28.8022 187.998 28.9808C187.925 29.1594 187.832 29.3093 187.717 29.4304C187.605 29.5484 187.479 29.6423 187.34 29.7119C187.2 29.7785 187.064 29.83 186.931 29.8663C186.798 29.8996 186.674 29.9208 186.559 29.9299C186.447 29.939 186.36 29.9435 186.3 29.9435H183.711V24.9936ZM184.996 28.9763H185.936C186.036 28.9763 186.135 28.9687 186.232 28.9535C186.332 28.9354 186.421 28.9036 186.5 28.8582C186.581 28.8097 186.646 28.7447 186.695 28.6629C186.743 28.5781 186.767 28.4692 186.767 28.3359C186.767 28.2058 186.742 28.0983 186.69 28.0135C186.642 27.9288 186.574 27.8622 186.486 27.8137C186.401 27.7653 186.301 27.732 186.186 27.7138C186.074 27.6926 185.955 27.682 185.827 27.682H184.996V28.9763Z" fill="#4E2D2D"/>
<path d="M191.15 24.9936H192.376V25.7021H192.394C192.482 25.5537 192.574 25.4266 192.671 25.3206C192.768 25.2116 192.875 25.1223 192.993 25.0527C193.112 24.983 193.242 24.9316 193.384 24.8983C193.529 24.865 193.693 24.8483 193.874 24.8483C194.026 24.8483 194.182 24.8665 194.342 24.9028C194.503 24.9392 194.659 24.9982 194.81 25.0799C194.964 25.1586 195.11 25.2631 195.246 25.3933C195.382 25.5204 195.502 25.6778 195.605 25.8655C195.708 26.0533 195.789 26.2727 195.85 26.524C195.91 26.7723 195.941 27.0569 195.941 27.3778C195.941 27.7774 195.897 28.1437 195.809 28.4767C195.724 28.8097 195.594 29.0958 195.418 29.335C195.246 29.5742 195.026 29.7604 194.76 29.8936C194.497 30.0268 194.186 30.0934 193.829 30.0934C193.705 30.0934 193.579 30.0813 193.452 30.0571C193.325 30.0328 193.201 29.992 193.08 29.9344C192.959 29.8769 192.844 29.7997 192.735 29.7028C192.629 29.6029 192.535 29.4788 192.453 29.3305H192.435V31.8599H191.15V24.9936ZM193.493 26.0018C193.287 26.0018 193.113 26.0457 192.971 26.1335C192.831 26.2213 192.718 26.3348 192.63 26.4741C192.545 26.6133 192.483 26.7708 192.444 26.9463C192.405 27.1219 192.385 27.296 192.385 27.4686C192.385 27.5624 192.389 27.6654 192.399 27.7774C192.411 27.8864 192.432 27.9984 192.462 28.1134C192.492 28.2254 192.533 28.3344 192.585 28.4404C192.639 28.5464 192.707 28.6402 192.789 28.7219C192.871 28.8037 192.969 28.8703 193.084 28.9218C193.199 28.9702 193.336 28.9944 193.493 28.9944C193.65 28.9944 193.787 28.9702 193.902 28.9218C194.017 28.8703 194.115 28.8037 194.197 28.7219C194.279 28.6402 194.345 28.5464 194.397 28.4404C194.451 28.3344 194.494 28.2254 194.524 28.1134C194.554 27.9984 194.574 27.8864 194.583 27.7774C194.595 27.6654 194.601 27.5624 194.601 27.4686C194.601 27.296 194.581 27.1219 194.542 26.9463C194.503 26.7708 194.439 26.6133 194.351 26.4741C194.266 26.3348 194.153 26.2213 194.011 26.1335C193.868 26.0457 193.696 26.0018 193.493 26.0018Z" fill="#4E2D2D"/>
<path d="M196.576 27.4686C196.576 27.0871 196.634 26.7359 196.749 26.415C196.867 26.0941 197.035 25.8186 197.253 25.5885C197.474 25.3554 197.74 25.1738 198.052 25.0436C198.364 24.9134 198.715 24.8483 199.106 24.8483C199.502 24.8483 199.857 24.9134 200.168 25.0436C200.483 25.1738 200.748 25.3554 200.963 25.5885C201.181 25.8186 201.348 26.0941 201.463 26.415C201.578 26.7359 201.635 27.0871 201.635 27.4686C201.635 27.85 201.578 28.2012 201.463 28.5221C201.348 28.843 201.181 29.1201 200.963 29.3532C200.748 29.5863 200.483 29.7679 200.168 29.8981C199.857 30.0283 199.502 30.0934 199.106 30.0934C198.715 30.0934 198.364 30.0283 198.052 29.8981C197.74 29.7679 197.474 29.5863 197.253 29.3532C197.035 29.1201 196.867 28.843 196.749 28.5221C196.634 28.2012 196.576 27.85 196.576 27.4686ZM197.916 27.4686C197.916 27.6563 197.936 27.8425 197.975 28.0271C198.017 28.2088 198.086 28.3723 198.179 28.5176C198.273 28.6599 198.396 28.7749 198.547 28.8627C198.699 28.9505 198.885 28.9944 199.106 28.9944C199.336 28.9944 199.527 28.952 199.678 28.8673C199.832 28.7795 199.955 28.6659 200.046 28.5267C200.137 28.3844 200.2 28.2224 200.237 28.0408C200.276 27.8561 200.296 27.6654 200.296 27.4686C200.296 27.2748 200.276 27.0856 200.237 26.9009C200.2 26.7163 200.137 26.5543 200.046 26.415C199.955 26.2727 199.832 26.1592 199.678 26.0744C199.527 25.9866 199.336 25.9427 199.106 25.9427C198.885 25.9427 198.699 25.9866 198.547 26.0744C198.396 26.1622 198.273 26.2788 198.179 26.4241C198.086 26.5664 198.017 26.7299 197.975 26.9146C197.936 27.0962 197.916 27.2809 197.916 27.4686Z" fill="#4E2D2D"/>
<path d="M202.139 28.9036H202.653C202.774 28.6765 202.874 28.4389 202.952 28.1906C203.034 27.9394 203.099 27.6866 203.147 27.4323C203.196 27.1779 203.231 26.9297 203.252 26.6875C203.273 26.4423 203.288 26.2122 203.297 25.9972C203.306 25.7823 203.309 25.5885 203.306 25.416C203.306 25.2434 203.308 25.1026 203.311 24.9936H207.18V28.9036H207.802V31.1333H206.594V29.9435H203.347V31.1333H202.139V28.9036ZM205.899 28.9036V26.0381H204.428C204.428 26.1289 204.427 26.241 204.424 26.3742C204.424 26.5074 204.418 26.6557 204.405 26.8192C204.396 26.9797 204.381 27.1507 204.36 27.3323C204.342 27.514 204.313 27.6956 204.274 27.8773C204.237 28.0589 204.192 28.2376 204.137 28.4131C204.086 28.5887 204.021 28.7522 203.942 28.9036H205.899Z" fill="#4E2D2D"/>
<path d="M209.437 27.8682C209.437 27.9136 209.442 27.9742 209.451 28.0499C209.46 28.1255 209.478 28.2073 209.505 28.2951C209.532 28.3829 209.572 28.4722 209.623 28.563C209.675 28.6508 209.743 28.731 209.828 28.8037C209.915 28.8763 210.021 28.9354 210.145 28.9808C210.273 29.0262 210.424 29.0489 210.6 29.0489C210.69 29.0489 210.78 29.0368 210.867 29.0126C210.958 28.9853 211.042 28.9475 211.117 28.8991C211.193 28.8476 211.258 28.787 211.313 28.7174C211.37 28.6447 211.411 28.563 211.435 28.4722H212.766C212.766 28.563 212.746 28.6675 212.707 28.7855C212.667 28.9006 212.607 29.0186 212.525 29.1397C212.446 29.2578 212.346 29.3744 212.225 29.4894C212.104 29.6044 211.96 29.7074 211.794 29.7982C211.627 29.886 211.438 29.9571 211.226 30.0116C211.017 30.0661 210.784 30.0934 210.527 30.0934C210.197 30.0934 209.887 30.0434 209.596 29.9435C209.308 29.8466 209.056 29.6922 208.838 29.4803C208.623 29.2654 208.453 28.9884 208.329 28.6493C208.205 28.3102 208.143 27.8985 208.143 27.4141C208.143 27.078 208.187 26.7556 208.274 26.4468C208.365 26.135 208.505 25.861 208.692 25.6249C208.883 25.3887 209.125 25.201 209.419 25.0618C209.716 24.9195 210.071 24.8483 210.486 24.8483C210.925 24.8483 211.294 24.921 211.594 25.0663C211.894 25.2086 212.134 25.4114 212.316 25.6748C212.501 25.9382 212.632 26.2561 212.711 26.6285C212.79 27.0008 212.829 27.4141 212.829 27.8682H209.437ZM211.494 27.0145C211.494 26.7965 211.461 26.6148 211.394 26.4695C211.331 26.3242 211.249 26.2092 211.149 26.1244C211.052 26.0366 210.945 25.9761 210.827 25.9427C210.709 25.9064 210.595 25.8883 210.486 25.8883C210.38 25.8883 210.268 25.9064 210.15 25.9427C210.032 25.9761 209.923 26.0366 209.823 26.1244C209.726 26.2092 209.644 26.3242 209.578 26.4695C209.514 26.6148 209.482 26.7965 209.482 27.0145H211.494Z" fill="#4E2D2D"/>
<path d="M218.41 29.9435H217.13V26.0381H215.613L215.586 26.96C215.571 27.4777 215.537 27.9318 215.486 28.3223C215.434 28.7129 215.35 29.0398 215.232 29.3032C215.117 29.5636 214.959 29.7604 214.759 29.8936C214.562 30.0268 214.31 30.0934 214.001 30.0934C213.856 30.0934 213.728 30.0843 213.619 30.0661C213.51 30.051 213.421 30.0283 213.352 29.998V28.9218C213.394 28.9399 213.447 28.9566 213.51 28.9717C213.577 28.9868 213.657 28.9944 213.751 28.9944C213.848 28.9944 213.934 28.9657 214.01 28.9081C214.086 28.8476 214.151 28.7401 214.205 28.5857C214.26 28.4283 214.302 28.2118 214.332 27.9363C214.363 27.6608 214.382 27.3051 214.391 26.8691L214.428 24.9936H218.41V29.9435Z" fill="#4E2D2D"/>
<path d="M219.759 24.9936H221.044V28.0453H221.062L222.865 24.9936H224.214V29.9435H222.933V26.96H222.911L221.162 29.9435H219.759V24.9936Z" fill="#4E2D2D"/>
<path d="M229.909 29.9435H228.619V28.1225H227.779C227.594 28.1225 227.435 28.1301 227.302 28.1452C227.172 28.1573 227.064 28.1891 226.98 28.2406C226.895 28.289 226.83 28.3617 226.784 28.4586C226.742 28.5554 226.718 28.6871 226.712 28.8536L226.693 29.3305C226.687 29.4001 226.678 29.4909 226.666 29.6029C226.657 29.7149 226.628 29.8285 226.58 29.9435H225.222C225.261 29.8769 225.293 29.8133 225.317 29.7528C225.342 29.6892 225.36 29.6287 225.372 29.5711C225.387 29.5106 225.398 29.45 225.404 29.3895C225.413 29.3289 225.42 29.2654 225.426 29.1988L225.49 28.6039C225.505 28.4707 225.523 28.3556 225.545 28.2587C225.566 28.1619 225.601 28.0786 225.649 28.009C225.697 27.9363 225.764 27.8743 225.849 27.8228C225.934 27.7713 226.047 27.7244 226.189 27.682C226.144 27.6699 226.093 27.6533 226.035 27.6321C225.981 27.6078 225.921 27.5776 225.858 27.5412C225.797 27.5019 225.735 27.4534 225.672 27.3959C225.611 27.3354 225.554 27.2612 225.499 27.1734C225.46 27.1159 225.428 27.0553 225.404 26.9918C225.383 26.9252 225.366 26.8616 225.354 26.801C225.342 26.7375 225.334 26.6784 225.331 26.6239C225.328 26.5694 225.327 26.5225 225.327 26.4831C225.327 26.3076 225.348 26.1516 225.39 26.0154C225.433 25.8761 225.487 25.755 225.554 25.6521C225.62 25.5492 225.696 25.4614 225.781 25.3887C225.865 25.3161 225.952 25.257 226.04 25.2116C226.136 25.1571 226.244 25.1163 226.362 25.089C226.48 25.0587 226.595 25.0375 226.707 25.0254C226.819 25.0103 226.924 25.0012 227.02 24.9982C227.117 24.9952 227.193 24.9936 227.247 24.9936H229.909V29.9435ZM228.619 25.9609H227.584C227.475 25.9609 227.366 25.9639 227.257 25.97C227.148 25.9761 227.049 26.0003 226.961 26.0427C226.877 26.082 226.807 26.1456 226.753 26.2334C226.701 26.3182 226.675 26.4393 226.675 26.5967C226.675 26.7511 226.701 26.8691 226.753 26.9509C226.807 27.0326 226.875 27.0932 226.957 27.1325C227.042 27.1719 227.135 27.1946 227.238 27.2007C227.341 27.2067 227.444 27.2097 227.547 27.2097H228.619V25.9609Z" fill="#4E2D2D"/>
<path d="M28.6515 10.597C25.2177 7.45402 21.816 4.31102 18.3501 1.20009C17.8687 0.783166 17.259 0.366237 16.6492 0.270023C13.3117 -0.403477 10.263 0.109666 7.75983 2.64331C7.47101 2.89988 7.24636 3.22059 7.05381 3.50924C6.86126 3.76581 6.7329 4.08652 6.50826 4.47138C7.02172 4.63174 7.43891 4.79209 7.85611 4.95245C11.6429 6.26738 15.4297 7.58231 19.2166 8.86516C19.8905 9.08966 20.3398 9.60281 20.7891 10.2122C21.0137 10.5008 21.7839 10.7574 22.1369 10.6932C23.0997 10.4687 23.8378 10.5008 24.7363 10.8215C26.7902 11.5271 28.812 12.2327 30.9621 12.7779C30.1919 12.0402 29.4217 11.3026 28.6515 10.597ZM16.8418 3.92617C16.6492 4.50345 15.526 4.63174 14.3707 4.21481C13.2154 3.79788 12.4452 2.99609 12.6378 2.41881C12.8303 1.84152 13.9535 1.71324 15.1088 2.13017C16.2641 2.54709 17.0343 3.34888 16.8418 3.92617ZM23.6131 8.41617C23.4527 8.86517 22.6504 9.02552 21.8481 8.73688C21.0458 8.44824 20.5323 7.83888 20.6928 7.38988C20.8532 6.94088 21.6555 6.78052 22.4578 7.06917C23.2601 7.32574 23.7736 7.93509 23.6131 8.41617Z" fill="#FD9339"/>
<path d="M32.6943 15.1514C29.774 14.1251 26.8536 13.1309 23.9333 12.1046C23.2914 11.8801 22.8422 12.0726 22.1361 12.265C21.3338 12.4895 20.4032 12.1688 19.8255 11.5594C19.5367 11.2387 19.28 10.5331 18.8949 10.3728C14.8192 8.92957 10.7115 7.51843 6.60376 6.10729C6.41121 6.04315 6.21866 6.01108 5.96192 5.979C5.73728 6.6525 5.51264 7.29393 5.288 7.96743C7.24559 9.85965 6.89258 13.0668 3.29831 13.7403C2.84903 15.0873 2.36765 16.4664 1.91837 17.8775C1.34072 19.6414 0.730977 21.4054 0.153327 23.1693C-0.135498 24.0994 -0.0713148 24.2597 0.827253 24.6125C1.56536 24.9011 2.33556 25.1256 3.07367 25.3822C7.37396 26.8575 11.6742 28.3649 15.9745 29.8401C16.3275 29.9684 16.6805 30.0967 16.9694 30.1929C19.9539 28.0121 21.9436 28.7176 22.7459 32.1814C23.9975 32.6304 25.3453 33.0794 26.6611 33.5284C27.2387 33.7208 27.6238 33.5284 27.8164 32.919C28.1373 31.8927 28.5224 30.8344 28.8754 29.7439C27.4313 28.8139 26.5006 27.5951 27.0783 25.8312C27.6559 24.0673 29.1 23.5862 30.8009 23.7786C31.7316 21.0205 32.6301 18.2944 33.5608 15.5042C33.272 15.4401 32.9831 15.2797 32.6943 15.1514ZM6.47539 22.7524C6.41121 22.9127 6.31493 23.0731 6.18656 23.2014C5.80146 23.5862 5.19172 23.7786 4.64616 23.6183C3.97224 23.4259 3.55505 22.6882 3.61923 21.9826C3.61923 21.8864 3.65132 21.7902 3.68341 21.694C3.7155 21.5336 3.81178 21.4054 3.94015 21.2771C3.94015 21.245 3.97224 21.245 3.97224 21.2129C4.16479 21.0205 4.38943 20.8922 4.64616 20.796C4.67826 20.796 4.74244 20.7639 4.77453 20.7639C5.06336 20.6998 5.35218 20.6998 5.60891 20.796C5.80146 20.8601 5.96192 20.9564 6.09029 21.1167C6.15447 21.1809 6.21866 21.245 6.28284 21.3412C6.4433 21.5978 6.53957 21.8864 6.57167 22.1751C6.57167 22.3675 6.53957 22.5599 6.47539 22.7524ZM16.0066 17.6851C15.6215 17.9416 15.1722 18.102 14.6909 18.1341C14.6588 18.1341 14.6267 18.1341 14.6267 18.1341C14.4341 18.1341 14.2416 18.1341 14.0169 18.102C13.8244 18.0699 13.5997 18.0379 13.4072 17.9416C13.2146 17.8775 13.0542 17.7813 12.8937 17.6851C12.0914 17.204 11.578 16.306 11.4817 15.3439C11.4496 14.959 11.4817 14.5741 11.6101 14.2214C11.7384 13.8686 11.8989 13.5799 12.0914 13.2913C12.1235 13.2271 12.1556 13.163 12.1877 13.1309C12.3482 12.9385 12.5728 12.7461 12.7654 12.6178C12.9258 12.4895 13.1184 12.3933 13.2788 12.3291C13.9207 12.0726 14.6267 12.0084 15.3648 12.265C16.5201 12.6819 17.2582 13.7082 17.3224 14.8628C17.3545 15.2476 17.2903 15.6646 17.1619 16.0494C17.0977 16.2419 17.0015 16.4343 16.9052 16.6267C16.7126 17.1078 16.3917 17.4285 16.0066 17.6851ZM18.6702 25.7671C17.6112 25.7671 16.7447 24.9011 16.7447 23.8428C16.7447 22.7844 17.6112 21.9185 18.6702 21.9185C19.7293 21.9185 20.5957 22.7844 20.5957 23.8428C20.5957 24.9011 19.7293 25.7671 18.6702 25.7671ZM26.9499 19.4169C26.8536 19.7697 26.629 20.0584 26.3081 20.2508C26.2439 20.2829 26.1797 20.347 26.0834 20.3791C25.7625 20.5074 25.4095 20.5715 25.0886 20.4753C24.4146 20.2508 23.9975 19.5773 24.0616 18.8717C24.0616 18.8396 24.0616 18.8396 24.0616 18.8076C24.0616 18.7434 24.0937 18.6472 24.1258 18.5831C24.19 18.3906 24.2863 18.1982 24.4146 18.0699C24.6072 17.8454 24.8639 17.6851 25.1528 17.6209C25.4416 17.5568 25.7304 17.5568 26.0192 17.653C26.2118 17.7171 26.3722 17.8134 26.5006 17.9416C26.8536 18.2624 27.0462 18.7114 27.0141 19.1924C26.982 19.2245 26.982 19.3207 26.9499 19.4169Z" fill="#FD9339"/>
</svg>
