<svg width="14" height="14" viewBox="0 0 14 14" fill="none" xmlns="http://www.w3.org/2000/svg">
<path d="M5.84859 7.56481C4.97109 6.68731 4.30959 5.70481 3.87009 4.70806C3.77709 4.49731 3.83184 4.25056 3.99459 4.08781L4.60884 3.47431C5.11209 2.97106 5.11209 2.25931 4.67259 1.81981L3.79209 0.939312C3.20634 0.353562 2.25684 0.353562 1.67109 0.939312L1.18209 1.42831C0.626341 1.98406 0.394591 2.78581 0.544591 3.58081C0.915091 5.54056 2.05359 7.68631 3.89034 9.52306C5.72709 11.3598 7.87284 12.4983 9.83259 12.8688C10.6276 13.0188 11.4293 12.7871 11.9851 12.2313L12.4733 11.7431C13.0591 11.1573 13.0591 10.2078 12.4733 9.62206L11.5936 8.74231C11.1541 8.30281 10.4416 8.30281 10.0028 8.74231L9.32559 9.42031C9.16284 9.58306 8.91609 9.63781 8.70534 9.54481C7.70859 9.10456 6.72609 8.44231 5.84859 7.56481V7.56481Z" stroke="#FD9339" stroke-linecap="round" stroke-linejoin="round"/>
</svg>
